<svg
    xmlns="http://www.w3.org/2000/svg"
    viewBox="0 0 640 640"
    id="vector">
    <defs>
        <clipPath id="clip_path_25">
            <path d="M 97.88 41.65 L 179.48 41.65 L 179.48 72.47 L 97.88 72.47 L 97.88 41.65 Z"/>
        </clipPath>
        <clipPath id="clip_path_27">
            <path d="M 460.81 41.65 L 542.4 41.65 L 542.4 72.47 L 460.81 72.47 L 460.81 41.65 Z"/>
        </clipPath>
    </defs>
    <g
        id="group_2"
        transform="rotate(180 320 320)">
        <path
            id="path"
            d="M 405.09 342.09 L 460.81 342.09 L 460.81 494.16 L 405.09 494.16 L 405.09 342.09 Z"
            fill="#6f6e6e"/>
        <path
            id="path_1"
            d="M 405.09 342.09 L 460.81 342.09 L 460.81 494.16 L 405.09 494.16 L 405.09 342.09 Z"
            fill="none"
            stroke="#1b1b17"
            stroke-width="1"/>
        <path
            id="path_2"
            d="M 180.03 342.09 L 235.74 342.09 L 235.74 494.16 L 180.03 494.16 L 180.03 342.09 Z"
            fill="#6f6e6e"/>
        <path
            id="path_3"
            d="M 180.03 342.09 L 235.74 342.09 L 235.74 494.16 L 180.03 494.16 L 180.03 342.09 Z"
            fill="none"
            stroke="#1b1b17"
            stroke-width="1"/>
        <path
            id="path_4"
            d="M 411.43 381.92 L 425.01 381.92 L 425.01 475.15 L 411.43 475.15 L 411.43 381.92 Z"
            fill="#8f8f8f"/>
        <path
            id="path_5"
            d="M 411.43 381.92 L 425.01 381.92 L 425.01 475.15 L 411.43 475.15 L 411.43 381.92 Z"
            fill="none"
            stroke="#1b1b17"
            stroke-width="1"/>
        <path
            id="path_6"
            d="M 213.93 381.92 L 227.51 381.92 L 227.51 475.15 L 213.93 475.15 L 213.93 381.92 Z"
            fill="#8f8f8f"/>
        <path
            id="path_7"
            d="M 213.93 381.92 L 227.51 381.92 L 227.51 475.15 L 213.93 475.15 L 213.93 381.92 Z"
            fill="none"
            stroke="#1b1b17"
            stroke-width="1"/>
        <path
            id="path_8"
            d="M 560.57 41.65 L 320.27 620.99 L 75.31 41.65 L 560.57 41.65 Z"
            fill="#1a56ba"/>
        <path
            id="path_9"
            d="M 560.57 41.65 L 320.27 620.99 L 75.31 41.65 L 560.57 41.65 Z"
            fill="none"
            stroke="#102d06"
            stroke-width="2"/>
        <path
            id="path_10"
            d="M 560.57 41.65 L 320.27 620.99 L 75.31 41.65 L 560.57 41.65 Z"
            fill="none"
            stroke="#102d06"
            stroke-width="2"/>
        <path
            id="path_11"
            d="M 7.68 155.05 L 321.16 155.05 L 144.02 453.35 L 7.68 155.05 Z"
            fill="#1a56ba"/>
        <path
            id="path_12"
            d="M 7.68 155.05 L 321.16 155.05 L 144.02 453.35 L 7.68 155.05 Z"
            fill="none"
            stroke="#102d06"
            stroke-width="2"/>
        <path
            id="path_13"
            d="M 636.85 155.05 L 323.36 155.05 L 500.5 453.35 L 636.85 155.05 Z"
            fill="#1a56ba"/>
        <path
            id="path_14"
            d="M 636.85 155.05 L 323.36 155.05 L 500.5 453.35 L 636.85 155.05 Z"
            fill="none"
            stroke="#102d06"
            stroke-width="2"/>
        <path
            id="path_15"
            d="M 636.85 155.05 L 323.36 155.05 L 500.5 453.35 L 636.85 155.05 Z"
            fill="none"
            stroke="#102d06"
            stroke-width="2"/>
        <path
            id="path_16"
            d="M 142.97 453.35 L 97.88 355.84 L 200.95 355.84 L 142.97 453.35 Z"
            fill="#9335ed"/>
        <path
            id="path_17"
            d="M 142.97 453.35 L 97.88 355.84 L 200.95 355.84 L 142.97 453.35 Z"
            fill="none"
            stroke="#102d06"
            stroke-width="2"/>
        <path
            id="path_18"
            d="M 462.49 191.83 L 462.9 191.85 L 463.3 191.9 L 463.7 191.95 L 464.09 192.02 L 464.48 192.11 L 464.86 192.21 L 465.24 192.33 L 465.61 192.46 L 465.97 192.61 L 466.32 192.77 L 466.67 192.94 L 467.01 193.12 L 467.34 193.32 L 467.67 193.53 L 467.98 193.75 L 468.29 193.98 L 468.58 194.23 L 468.87 194.48 L 469.15 194.75 L 469.41 195.03 L 469.67 195.31 L 469.91 195.61 L 470.15 195.92 L 470.37 196.23 L 470.58 196.55 L 470.78 196.89 L 470.96 197.23 L 471.13 197.57 L 471.29 197.93 L 471.44 198.29 L 471.57 198.66 L 471.68 199.04 L 471.79 199.42 L 471.87 199.81 L 471.95 200.2 L 472 200.6 L 472.04 201 L 472.07 201.41 L 472.08 201.82 L 472.08 203.01 L 472.08 204.28 L 472.08 205.61 L 472.08 207.02 L 472.08 208.48 L 472.08 210 L 472.08 211.58 L 472.08 213.21 L 472.08 214.88 L 472.08 216.6 L 472.08 218.36 L 472.08 220.15 L 472.08 221.97 L 472.08 223.82 L 472.08 225.69 L 472.08 227.58 L 472.08 229.49 L 472.08 231.41 L 472.08 233.34 L 472.08 235.27 L 472.08 237.2 L 472.08 239.13 L 472.08 241.05 L 472.08 242.96 L 472.08 244.85 L 472.08 246.72 L 472.08 248.57 L 472.08 250.4 L 472.08 252.19 L 472.08 253.94 L 472.08 255.66 L 472.08 257.33 L 472.08 258.96 L 472.08 260.54 L 472.08 262.06 L 472.08 263.53 L 472.08 264.93 L 472.08 266.26 L 472.08 267.53 L 472.08 268.72 L 472.07 269.13 L 472.04 269.54 L 472 269.95 L 471.95 270.34 L 471.87 270.74 L 471.79 271.13 L 471.68 271.51 L 471.57 271.88 L 471.44 272.25 L 471.29 272.61 L 471.13 272.97 L 470.96 273.32 L 470.78 273.66 L 470.58 273.99 L 470.37 274.31 L 470.15 274.63 L 469.91 274.93 L 469.67 275.23 L 469.41 275.52 L 469.15 275.79 L 468.87 276.06 L 468.58 276.31 L 468.29 276.56 L 467.98 276.79 L 467.67 277.01 L 467.34 277.22 L 467.01 277.42 L 466.67 277.61 L 466.32 277.78 L 465.97 277.94 L 465.61 278.08 L 465.24 278.21 L 464.86 278.33 L 464.48 278.43 L 464.09 278.52 L 463.7 278.59 L 463.3 278.65 L 462.9 278.69 L 462.49 278.71 L 462.08 278.72 L 461.51 278.72 L 460.93 278.72 L 460.33 278.72 L 459.72 278.72 L 459.09 278.72 L 458.45 278.72 L 457.79 278.72 L 457.13 278.72 L 456.45 278.72 L 455.76 278.72 L 455.07 278.72 L 454.36 278.72 L 453.65 278.72 L 452.93 278.72 L 452.21 278.72 L 451.48 278.72 L 450.75 278.72 L 450.01 278.72 L 449.28 278.72 L 448.54 278.72 L 447.8 278.72 L 447.07 278.72 L 446.33 278.72 L 445.6 278.72 L 444.87 278.72 L 444.15 278.72 L 443.43 278.72 L 442.72 278.72 L 442.02 278.72 L 441.32 278.72 L 440.63 278.72 L 439.96 278.72 L 439.29 278.72 L 438.64 278.72 L 437.99 278.72 L 437.36 278.72 L 436.75 278.72 L 436.15 278.72 L 435.57 278.72 L 435.01 278.72 L 434.59 278.71 L 434.19 278.69 L 433.78 278.65 L 433.38 278.59 L 432.99 278.52 L 432.6 278.43 L 432.22 278.33 L 431.84 278.21 L 431.48 278.08 L 431.11 277.94 L 430.76 277.78 L 430.41 277.61 L 430.07 277.42 L 429.74 277.22 L 429.41 277.01 L 429.1 276.79 L 428.79 276.56 L 428.5 276.31 L 428.21 276.06 L 427.93 275.79 L 427.67 275.52 L 427.41 275.23 L 427.17 274.93 L 426.93 274.63 L 426.71 274.31 L 426.5 273.99 L 426.31 273.66 L 426.12 273.32 L 425.95 272.97 L 425.79 272.61 L 425.65 272.25 L 425.52 271.88 L 425.4 271.51 L 425.3 271.13 L 425.21 270.74 L 425.14 270.34 L 425.08 269.95 L 425.04 269.54 L 425.01 269.13 L 425.01 268.72 L 425.01 267.53 L 425.01 266.26 L 425.01 264.93 L 425.01 263.53 L 425.01 262.06 L 425.01 260.54 L 425.01 258.96 L 425.01 257.33 L 425.01 255.66 L 425.01 253.94 L 425.01 252.19 L 425.01 250.4 L 425.01 248.57 L 425.01 246.72 L 425.01 244.85 L 425.01 242.96 L 425.01 241.05 L 425.01 239.13 L 425.01 237.2 L 425.01 235.27 L 425.01 233.34 L 425.01 231.41 L 425.01 229.49 L 425.01 227.58 L 425.01 225.69 L 425.01 223.82 L 425.01 221.97 L 425.01 220.15 L 425.01 218.36 L 425.01 216.6 L 425.01 214.88 L 425.01 213.21 L 425.01 211.58 L 425.01 210 L 425.01 208.48 L 425.01 207.02 L 425.01 205.61 L 425.01 204.28 L 425.01 203.01 L 425.01 201.82 L 425.01 201.41 L 425.04 201 L 425.08 200.6 L 425.14 200.2 L 425.21 199.81 L 425.3 199.42 L 425.4 199.04 L 425.52 198.66 L 425.65 198.29 L 425.79 197.93 L 425.95 197.57 L 426.12 197.23 L 426.31 196.89 L 426.5 196.55 L 426.71 196.23 L 426.93 195.92 L 427.17 195.61 L 427.41 195.31 L 427.67 195.03 L 427.93 194.75 L 428.21 194.48 L 428.5 194.23 L 428.79 193.98 L 429.1 193.75 L 429.41 193.53 L 429.74 193.32 L 430.07 193.12 L 430.41 192.94 L 430.76 192.77 L 431.11 192.61 L 431.48 192.46 L 431.84 192.33 L 432.22 192.21 L 432.6 192.11 L 432.99 192.02 L 433.38 191.95 L 433.78 191.9 L 434.19 191.85 L 434.59 191.83 L 435.01 191.82 L 435.57 191.82 L 436.15 191.82 L 436.75 191.82 L 437.36 191.82 L 437.99 191.82 L 438.64 191.82 L 439.29 191.82 L 439.96 191.82 L 440.63 191.82 L 441.32 191.82 L 442.02 191.82 L 442.72 191.82 L 443.43 191.82 L 444.15 191.82 L 444.87 191.82 L 445.6 191.82 L 446.33 191.82 L 447.07 191.82 L 447.8 191.82 L 448.54 191.82 L 449.28 191.82 L 450.01 191.82 L 450.75 191.82 L 451.48 191.82 L 452.21 191.82 L 452.93 191.82 L 453.65 191.82 L 454.36 191.82 L 455.07 191.82 L 455.76 191.82 L 456.45 191.82 L 457.13 191.82 L 457.79 191.82 L 458.45 191.82 L 459.09 191.82 L 459.72 191.82 L 460.33 191.82 L 460.93 191.82 L 461.51 191.82 L 462.08 191.82 L 462.08 191.82 L 462.49 191.83 Z"
            fill="#626161"/>
        <path
            id="path_19"
            d="M 462.49 191.83 L 462.9 191.85 L 463.3 191.9 L 463.7 191.95 L 464.09 192.02 L 464.48 192.11 L 464.86 192.21 L 465.24 192.33 L 465.61 192.46 L 465.97 192.61 L 466.32 192.77 L 466.67 192.94 L 467.01 193.12 L 467.34 193.32 L 467.67 193.53 L 467.98 193.75 L 468.29 193.98 L 468.58 194.23 L 468.87 194.48 L 469.15 194.75 L 469.41 195.03 L 469.67 195.31 L 469.91 195.61 L 470.15 195.92 L 470.37 196.23 L 470.58 196.55 L 470.78 196.89 L 470.96 197.23 L 471.13 197.57 L 471.29 197.93 L 471.44 198.29 L 471.57 198.66 L 471.68 199.04 L 471.79 199.42 L 471.87 199.81 L 471.95 200.2 L 472 200.6 L 472.04 201 L 472.07 201.41 L 472.08 201.82 L 472.08 203.01 L 472.08 204.28 L 472.08 205.61 L 472.08 207.02 L 472.08 208.48 L 472.08 210 L 472.08 211.58 L 472.08 213.21 L 472.08 214.88 L 472.08 216.6 L 472.08 218.36 L 472.08 220.15 L 472.08 221.97 L 472.08 223.82 L 472.08 225.69 L 472.08 227.58 L 472.08 229.49 L 472.08 231.41 L 472.08 233.34 L 472.08 235.27 L 472.08 237.2 L 472.08 239.13 L 472.08 241.05 L 472.08 242.96 L 472.08 244.85 L 472.08 246.72 L 472.08 248.57 L 472.08 250.4 L 472.08 252.19 L 472.08 253.94 L 472.08 255.66 L 472.08 257.33 L 472.08 258.96 L 472.08 260.54 L 472.08 262.06 L 472.08 263.53 L 472.08 264.93 L 472.08 266.26 L 472.08 267.53 L 472.08 268.72 L 472.07 269.13 L 472.04 269.54 L 472 269.95 L 471.95 270.34 L 471.87 270.74 L 471.79 271.13 L 471.68 271.51 L 471.57 271.88 L 471.44 272.25 L 471.29 272.61 L 471.13 272.97 L 470.96 273.32 L 470.78 273.66 L 470.58 273.99 L 470.37 274.31 L 470.15 274.63 L 469.91 274.93 L 469.67 275.23 L 469.41 275.52 L 469.15 275.79 L 468.87 276.06 L 468.58 276.31 L 468.29 276.56 L 467.98 276.79 L 467.67 277.01 L 467.34 277.22 L 467.01 277.42 L 466.67 277.61 L 466.32 277.78 L 465.97 277.94 L 465.61 278.08 L 465.24 278.21 L 464.86 278.33 L 464.48 278.43 L 464.09 278.52 L 463.7 278.59 L 463.3 278.65 L 462.9 278.69 L 462.49 278.71 L 462.08 278.72 L 461.51 278.72 L 460.93 278.72 L 460.33 278.72 L 459.72 278.72 L 459.09 278.72 L 458.45 278.72 L 457.79 278.72 L 457.13 278.72 L 456.45 278.72 L 455.76 278.72 L 455.07 278.72 L 454.36 278.72 L 453.65 278.72 L 452.93 278.72 L 452.21 278.72 L 451.48 278.72 L 450.75 278.72 L 450.01 278.72 L 449.28 278.72 L 448.54 278.72 L 447.8 278.72 L 447.07 278.72 L 446.33 278.72 L 445.6 278.72 L 444.87 278.72 L 444.15 278.72 L 443.43 278.72 L 442.72 278.72 L 442.02 278.72 L 441.32 278.72 L 440.63 278.72 L 439.96 278.72 L 439.29 278.72 L 438.64 278.72 L 437.99 278.72 L 437.36 278.72 L 436.75 278.72 L 436.15 278.72 L 435.57 278.72 L 435.01 278.72 L 434.59 278.71 L 434.19 278.69 L 433.78 278.65 L 433.38 278.59 L 432.99 278.52 L 432.6 278.43 L 432.22 278.33 L 431.84 278.21 L 431.48 278.08 L 431.11 277.94 L 430.76 277.78 L 430.41 277.61 L 430.07 277.42 L 429.74 277.22 L 429.41 277.01 L 429.1 276.79 L 428.79 276.56 L 428.5 276.31 L 428.21 276.06 L 427.93 275.79 L 427.67 275.52 L 427.41 275.23 L 427.17 274.93 L 426.93 274.63 L 426.71 274.31 L 426.5 273.99 L 426.31 273.66 L 426.12 273.32 L 425.95 272.97 L 425.79 272.61 L 425.65 272.25 L 425.52 271.88 L 425.4 271.51 L 425.3 271.13 L 425.21 270.74 L 425.14 270.34 L 425.08 269.95 L 425.04 269.54 L 425.01 269.13 L 425.01 268.72 L 425.01 267.53 L 425.01 266.26 L 425.01 264.93 L 425.01 263.53 L 425.01 262.06 L 425.01 260.54 L 425.01 258.96 L 425.01 257.33 L 425.01 255.66 L 425.01 253.94 L 425.01 252.19 L 425.01 250.4 L 425.01 248.57 L 425.01 246.72 L 425.01 244.85 L 425.01 242.96 L 425.01 241.05 L 425.01 239.13 L 425.01 237.2 L 425.01 235.27 L 425.01 233.34 L 425.01 231.41 L 425.01 229.49 L 425.01 227.58 L 425.01 225.69 L 425.01 223.82 L 425.01 221.97 L 425.01 220.15 L 425.01 218.36 L 425.01 216.6 L 425.01 214.88 L 425.01 213.21 L 425.01 211.58 L 425.01 210 L 425.01 208.48 L 425.01 207.02 L 425.01 205.61 L 425.01 204.28 L 425.01 203.01 L 425.01 201.82 L 425.01 201.41 L 425.04 201 L 425.08 200.6 L 425.14 200.2 L 425.21 199.81 L 425.3 199.42 L 425.4 199.04 L 425.52 198.66 L 425.65 198.29 L 425.79 197.93 L 425.95 197.57 L 426.12 197.23 L 426.31 196.89 L 426.5 196.55 L 426.71 196.23 L 426.93 195.92 L 427.17 195.61 L 427.41 195.31 L 427.67 195.03 L 427.93 194.75 L 428.21 194.48 L 428.5 194.23 L 428.79 193.98 L 429.1 193.75 L 429.41 193.53 L 429.74 193.32 L 430.07 193.12 L 430.41 192.94 L 430.76 192.77 L 431.11 192.61 L 431.48 192.46 L 431.84 192.33 L 432.22 192.21 L 432.6 192.11 L 432.99 192.02 L 433.38 191.95 L 433.78 191.9 L 434.19 191.85 L 434.59 191.83 L 435.01 191.82 L 435.57 191.82 L 436.15 191.82 L 436.75 191.82 L 437.36 191.82 L 437.99 191.82 L 438.64 191.82 L 439.29 191.82 L 439.96 191.82 L 440.63 191.82 L 441.32 191.82 L 442.02 191.82 L 442.72 191.82 L 443.43 191.82 L 444.15 191.82 L 444.87 191.82 L 445.6 191.82 L 446.33 191.82 L 447.07 191.82 L 447.8 191.82 L 448.54 191.82 L 449.28 191.82 L 450.01 191.82 L 450.75 191.82 L 451.48 191.82 L 452.21 191.82 L 452.93 191.82 L 453.65 191.82 L 454.36 191.82 L 455.07 191.82 L 455.76 191.82 L 456.45 191.82 L 457.13 191.82 L 457.79 191.82 L 458.45 191.82 L 459.09 191.82 L 459.72 191.82 L 460.33 191.82 L 460.93 191.82 L 461.51 191.82 L 462.08 191.82 L 462.08 191.82 L 462.49 191.83 Z"
            fill="none"
            stroke="#1b1b17"
            stroke-width="1"/>
        <path
            id="path_20"
            d="M 500.53 453.35 L 545.62 355.84 L 442.55 355.84 L 500.53 453.35 Z"
            fill="#9335ed"/>
        <path
            id="path_21"
            d="M 500.53 453.35 L 545.62 355.84 L 442.55 355.84 L 500.53 453.35 Z"
            fill="none"
            stroke="#102d06"
            stroke-width="2"/>
        <path
            id="path_22"
            d="M 450.81 204.49 C 456.33 204.49 460.81 208.97 460.81 214.49 C 460.81 224.62 460.81 245.01 460.81 255.14 C 460.81 260.67 456.33 265.14 450.81 265.14 C 447.46 265.14 447.41 265.14 444.06 265.14 C 438.53 265.14 434.06 260.67 434.06 255.14 C 434.06 245.01 434.06 224.62 434.06 214.49 C 434.06 208.97 438.53 204.49 444.06 204.49 C 447.41 204.49 447.46 204.49 450.81 204.49 Z"
            fill="#4d4c4c"/>
        <path
            id="path_23"
            d="M 450.81 204.49 C 456.33 204.49 460.81 208.97 460.81 214.49 C 460.81 224.62 460.81 245.01 460.81 255.14 C 460.81 260.67 456.33 265.14 450.81 265.14 C 447.46 265.14 447.41 265.14 444.06 265.14 C 438.53 265.14 434.06 260.67 434.06 255.14 C 434.06 245.01 434.06 224.62 434.06 214.49 C 434.06 208.97 438.53 204.49 444.06 204.49 C 447.41 204.49 447.46 204.49 450.81 204.49 Z"
            fill="none"
            stroke="#1b1b17"
            stroke-width="1"/>
        <path
            id="path_24"
            d="M 97.88 41.65 L 179.48 41.65 L 179.48 72.47 L 97.88 72.47 L 97.88 41.65 Z"
            fill="#e32828"/>
        <g id="group">
            <path
                id="path_25"
                clip-path="url(#clip_path_25)"
                d="M 97.88 41.65 L 179.48 41.65 L 179.48 72.47 L 97.88 72.47 L 97.88 41.65 Z"
                fill="none"
                stroke="#102d06"
                stroke-width="10"/>
        </g>
        <path
            id="path_26"
            d="M 460.81 41.65 L 542.4 41.65 L 542.4 72.47 L 460.81 72.47 L 460.81 41.65 Z"
            fill="#e32828"/>
        <g id="group_1">
            <path
                id="path_27"
                clip-path="url(#clip_path_27)"
                d="M 460.81 41.65 L 542.4 41.65 L 542.4 72.47 L 460.81 72.47 L 460.81 41.65 Z"
                fill="none"
                stroke="#102d06"
                stroke-width="10"/>
        </g>
        <path
            id="path_28"
            d="M 317.94 111.26 L 251.2 171.91 L 251.2 281.44 L 317.94 353.86 L 317.94 111.26 Z"
            fill="#8f8f8f"/>
        <path
            id="path_29"
            d="M 317.94 111.26 L 251.2 171.91 L 251.2 281.44 L 317.94 353.86 L 317.94 111.26 Z"
            fill="none"
            stroke="#102d06"
            stroke-width="2"/>
        <path
            id="path_30"
            d="M 317.94 111.26 L 384.68 171.91 L 384.68 281.44 L 317.94 353.86 L 317.94 111.26 Z"
            fill="#626161"/>
        <path
            id="path_31"
            d="M 317.94 111.26 L 384.68 171.91 L 384.68 281.44 L 317.94 353.86 L 317.94 111.26 Z"
            fill="none"
            stroke="#102d06"
            stroke-width="2"/>
        <path
            id="path_32"
            d="M 317.94 447.09 L 251.2 393.68 L 317.94 551.19 L 317.94 447.09 Z"
            fill="#8f8f8f"/>
        <path
            id="path_33"
            d="M 317.94 447.09 L 251.2 393.68 L 317.94 551.19 L 317.94 447.09 Z"
            fill="none"
            stroke="#1b1b17"
            stroke-width="1"/>
        <path
            id="path_34"
            d="M 317.94 447.09 L 384.68 393.68 L 317.94 551.19 L 317.94 447.09 Z"
            fill="#626161"/>
        <path
            id="path_35"
            d="M 317.94 447.09 L 384.68 393.68 L 317.94 551.19 L 317.94 447.09 Z"
            fill="none"
            stroke="#1b1b17"
            stroke-width="1"/>
        <path
            id="path_36"
            d="M 196.89 65.09 L 317.94 65.09 L 317.94 101.3 L 196.89 101.3 L 196.89 65.09 Z"
            fill="#8f8f8f"/>
        <path
            id="path_37"
            d="M 196.89 65.09 L 317.94 65.09 L 317.94 101.3 L 196.89 101.3 L 196.89 65.09 Z"
            fill="none"
            stroke="#1b1b17"
            stroke-width="1"/>
        <path
            id="path_38"
            d="M 317.94 65.09 L 439 65.09 L 439 101.3 L 317.94 101.3 L 317.94 65.09 Z"
            fill="#626161"/>
        <path
            id="path_39"
            d="M 317.94 65.09 L 439 65.09 L 439 101.3 L 317.94 101.3 L 317.94 65.09 Z"
            fill="none"
            stroke="#1b1b17"
            stroke-width="1"/>
        <path
            id="path_40"
            d="M 317.94 65.09 L 439 65.09 L 439 101.3 L 317.94 101.3 L 317.94 65.09 Z"
            fill="none"
            stroke="#1b1b17"
            stroke-width="1"/>
        <path
            id="path_41"
            d="M 215.9 91.34 L 215.9 72.47"
            fill="none"
            stroke="#1b1b17"
            stroke-width="1"/>
        <path
            id="path_42"
            d="M 272.02 91.34 L 272.02 72.47 L 272.02 91.34 Z"
            fill="none"
            stroke="#1b1b17"
            stroke-width="1"/>
        <path
            id="path_43"
            d="M 284.57 91.34 L 284.57 84.1 L 284.57 76.86"
            fill="none"
            stroke="#1b1b17"
            stroke-width="1"/>
        <path
            id="path_44"
            d="M 337.2 91.34 L 337.2 84.1 L 337.2 72.47"
            fill="none"
            stroke="#1b1b17"
            stroke-width="1"/>
        <path
            id="path_45"
            d="M 351.31 91.34 L 351.31 83.19 L 351.31 72.47"
            fill="none"
            stroke="#1b1b17"
            stroke-width="1"/>
        <path
            id="path_46"
            d="M 399.66 91.34 L 399.66 82.29 L 399.66 72.47"
            fill="none"
            stroke="#1b1b17"
            stroke-width="1"/>
        <path
            id="path_47"
            d="M 430.44 91.34 L 423.19 91.34 L 411.43 91.34"
            fill="none"
            stroke="#1b1b17"
            stroke-width="1"/>
        <path
            id="path_48"
            d="M 538.67 191.82 C 544.2 191.82 548.67 196.3 548.67 201.82 C 548.67 217.2 548.67 253.34 548.67 268.72 C 548.67 274.24 544.2 278.72 538.67 278.72 C 531.26 278.72 519.02 278.72 511.6 278.72 C 506.08 278.72 501.6 274.24 501.6 268.72 C 501.6 253.34 501.6 217.2 501.6 201.82 C 501.6 196.3 506.08 191.82 511.6 191.82 C 519.02 191.82 531.26 191.82 538.67 191.82 Z"
            fill="#626161"/>
        <path
            id="path_49"
            d="M 538.67 191.82 C 544.2 191.82 548.67 196.3 548.67 201.82 C 548.67 217.2 548.67 253.34 548.67 268.72 C 548.67 274.24 544.2 278.72 538.67 278.72 C 531.26 278.72 519.02 278.72 511.6 278.72 C 506.08 278.72 501.6 274.24 501.6 268.72 C 501.6 253.34 501.6 217.2 501.6 201.82 C 501.6 196.3 506.08 191.82 511.6 191.82 C 519.02 191.82 531.26 191.82 538.67 191.82 Z"
            fill="none"
            stroke="#1b1b17"
            stroke-width="1"/>
        <path
            id="path_50"
            d="M 528.51 204.49 C 534.03 204.49 538.51 208.97 538.51 214.49 C 538.51 224.62 538.51 245.01 538.51 255.14 C 538.51 260.67 534.03 265.14 528.51 265.14 C 525.16 265.14 525.11 265.14 521.76 265.14 C 516.24 265.14 511.76 260.67 511.76 255.14 C 511.76 245.01 511.76 224.62 511.76 214.49 C 511.76 208.97 516.24 204.49 521.76 204.49 C 525.11 204.49 525.16 204.49 528.51 204.49 Z"
            fill="#4d4c4c"/>
        <path
            id="path_51"
            d="M 528.51 204.49 C 534.03 204.49 538.51 208.97 538.51 214.49 C 538.51 224.62 538.51 245.01 538.51 255.14 C 538.51 260.67 534.03 265.14 528.51 265.14 C 525.16 265.14 525.11 265.14 521.76 265.14 C 516.24 265.14 511.76 260.67 511.76 255.14 C 511.76 245.01 511.76 224.62 511.76 214.49 C 511.76 208.97 516.24 204.49 521.76 204.49 C 525.11 204.49 525.16 204.49 528.51 204.49 Z"
            fill="none"
            stroke="#1b1b17"
            stroke-width="1"/>
        <path
            id="path_52"
            d="M 120.36 191.83 L 120.77 191.85 L 121.17 191.9 L 121.57 191.95 L 121.96 192.02 L 122.35 192.11 L 122.73 192.21 L 123.11 192.33 L 123.48 192.46 L 123.84 192.61 L 124.19 192.77 L 124.54 192.94 L 124.88 193.12 L 125.21 193.32 L 125.54 193.53 L 125.85 193.75 L 126.16 193.98 L 126.45 194.23 L 126.74 194.48 L 127.02 194.75 L 127.28 195.03 L 127.54 195.31 L 127.78 195.61 L 128.02 195.92 L 128.24 196.23 L 128.45 196.55 L 128.65 196.89 L 128.83 197.23 L 129 197.57 L 129.16 197.93 L 129.31 198.29 L 129.44 198.66 L 129.55 199.04 L 129.66 199.42 L 129.74 199.81 L 129.82 200.2 L 129.87 200.6 L 129.91 201 L 129.94 201.41 L 129.95 201.82 L 129.95 203.01 L 129.95 204.28 L 129.95 205.61 L 129.95 207.02 L 129.95 208.48 L 129.95 210 L 129.95 211.58 L 129.95 213.21 L 129.95 214.88 L 129.95 216.6 L 129.95 218.36 L 129.95 220.15 L 129.95 221.97 L 129.95 223.82 L 129.95 225.69 L 129.95 227.58 L 129.95 229.49 L 129.95 231.41 L 129.95 233.34 L 129.95 235.27 L 129.95 237.2 L 129.95 239.13 L 129.95 241.05 L 129.95 242.96 L 129.95 244.85 L 129.95 246.72 L 129.95 248.57 L 129.95 250.4 L 129.95 252.19 L 129.95 253.94 L 129.95 255.66 L 129.95 257.33 L 129.95 258.96 L 129.95 260.54 L 129.95 262.06 L 129.95 263.53 L 129.95 264.93 L 129.95 266.26 L 129.95 267.53 L 129.95 268.72 L 129.94 269.13 L 129.91 269.54 L 129.87 269.95 L 129.82 270.34 L 129.74 270.74 L 129.66 271.13 L 129.55 271.51 L 129.44 271.88 L 129.31 272.25 L 129.16 272.61 L 129 272.97 L 128.83 273.32 L 128.65 273.66 L 128.45 273.99 L 128.24 274.31 L 128.02 274.63 L 127.78 274.93 L 127.54 275.23 L 127.28 275.52 L 127.02 275.79 L 126.74 276.06 L 126.45 276.31 L 126.16 276.56 L 125.85 276.79 L 125.54 277.01 L 125.21 277.22 L 124.88 277.42 L 124.54 277.61 L 124.19 277.78 L 123.84 277.94 L 123.48 278.08 L 123.11 278.21 L 122.73 278.33 L 122.35 278.43 L 121.96 278.52 L 121.57 278.59 L 121.17 278.65 L 120.77 278.69 L 120.36 278.71 L 119.95 278.72 L 119.38 278.72 L 118.8 278.72 L 118.2 278.72 L 117.59 278.72 L 116.96 278.72 L 116.32 278.72 L 115.66 278.72 L 115 278.72 L 114.32 278.72 L 113.63 278.72 L 112.94 278.72 L 112.23 278.72 L 111.52 278.72 L 110.8 278.72 L 110.08 278.72 L 109.35 278.72 L 108.62 278.72 L 107.88 278.72 L 107.15 278.72 L 106.41 278.72 L 105.67 278.72 L 104.94 278.72 L 104.2 278.72 L 103.47 278.72 L 102.74 278.72 L 102.02 278.72 L 101.3 278.72 L 100.59 278.72 L 99.89 278.72 L 99.19 278.72 L 98.5 278.72 L 97.83 278.72 L 97.16 278.72 L 96.51 278.72 L 95.86 278.72 L 95.23 278.72 L 94.62 278.72 L 94.02 278.72 L 93.44 278.72 L 92.88 278.72 L 92.46 278.71 L 92.06 278.69 L 91.65 278.65 L 91.25 278.59 L 90.86 278.52 L 90.47 278.43 L 90.09 278.33 L 89.71 278.21 L 89.35 278.08 L 88.98 277.94 L 88.63 277.78 L 88.28 277.61 L 87.94 277.42 L 87.61 277.22 L 87.28 277.01 L 86.97 276.79 L 86.66 276.56 L 86.37 276.31 L 86.08 276.06 L 85.8 275.79 L 85.54 275.52 L 85.28 275.23 L 85.04 274.93 L 84.8 274.63 L 84.58 274.31 L 84.37 273.99 L 84.18 273.66 L 83.99 273.32 L 83.82 272.97 L 83.66 272.61 L 83.52 272.25 L 83.39 271.88 L 83.27 271.51 L 83.17 271.13 L 83.08 270.74 L 83.01 270.34 L 82.95 269.95 L 82.91 269.54 L 82.88 269.13 L 82.88 268.72 L 82.88 267.53 L 82.88 266.26 L 82.88 264.93 L 82.88 263.53 L 82.88 262.06 L 82.88 260.54 L 82.88 258.96 L 82.88 257.33 L 82.88 255.66 L 82.88 253.94 L 82.88 252.19 L 82.88 250.4 L 82.88 248.57 L 82.88 246.72 L 82.88 244.85 L 82.88 242.96 L 82.88 241.05 L 82.88 239.13 L 82.88 237.2 L 82.88 235.27 L 82.88 233.34 L 82.88 231.41 L 82.88 229.49 L 82.88 227.58 L 82.88 225.69 L 82.88 223.82 L 82.88 221.97 L 82.88 220.15 L 82.88 218.36 L 82.88 216.6 L 82.88 214.88 L 82.88 213.21 L 82.88 211.58 L 82.88 210 L 82.88 208.48 L 82.88 207.02 L 82.88 205.61 L 82.88 204.28 L 82.88 203.01 L 82.88 201.82 L 82.88 201.41 L 82.91 201 L 82.95 200.6 L 83.01 200.2 L 83.08 199.81 L 83.17 199.42 L 83.27 199.04 L 83.39 198.66 L 83.52 198.29 L 83.66 197.93 L 83.82 197.57 L 83.99 197.23 L 84.18 196.89 L 84.37 196.55 L 84.58 196.23 L 84.8 195.92 L 85.04 195.61 L 85.28 195.31 L 85.54 195.03 L 85.8 194.75 L 86.08 194.48 L 86.37 194.23 L 86.66 193.98 L 86.97 193.75 L 87.28 193.53 L 87.61 193.32 L 87.94 193.12 L 88.28 192.94 L 88.63 192.77 L 88.98 192.61 L 89.35 192.46 L 89.71 192.33 L 90.09 192.21 L 90.47 192.11 L 90.86 192.02 L 91.25 191.95 L 91.65 191.9 L 92.06 191.85 L 92.46 191.83 L 92.88 191.82 L 93.44 191.82 L 94.02 191.82 L 94.62 191.82 L 95.23 191.82 L 95.86 191.82 L 96.51 191.82 L 97.16 191.82 L 97.83 191.82 L 98.5 191.82 L 99.19 191.82 L 99.89 191.82 L 100.59 191.82 L 101.3 191.82 L 102.02 191.82 L 102.74 191.82 L 103.47 191.82 L 104.2 191.82 L 104.94 191.82 L 105.67 191.82 L 106.41 191.82 L 107.15 191.82 L 107.88 191.82 L 108.62 191.82 L 109.35 191.82 L 110.08 191.82 L 110.8 191.82 L 111.52 191.82 L 112.23 191.82 L 112.94 191.82 L 113.63 191.82 L 114.32 191.82 L 115 191.82 L 115.66 191.82 L 116.32 191.82 L 116.96 191.82 L 117.59 191.82 L 118.2 191.82 L 118.8 191.82 L 119.38 191.82 L 119.95 191.82 L 119.95 191.82 L 120.36 191.83 Z"
            fill="#626161"/>
        <path
            id="path_53"
            d="M 120.36 191.83 L 120.77 191.85 L 121.17 191.9 L 121.57 191.95 L 121.96 192.02 L 122.35 192.11 L 122.73 192.21 L 123.11 192.33 L 123.48 192.46 L 123.84 192.61 L 124.19 192.77 L 124.54 192.94 L 124.88 193.12 L 125.21 193.32 L 125.54 193.53 L 125.85 193.75 L 126.16 193.98 L 126.45 194.23 L 126.74 194.48 L 127.02 194.75 L 127.28 195.03 L 127.54 195.31 L 127.78 195.61 L 128.02 195.92 L 128.24 196.23 L 128.45 196.55 L 128.65 196.89 L 128.83 197.23 L 129 197.57 L 129.16 197.93 L 129.31 198.29 L 129.44 198.66 L 129.55 199.04 L 129.66 199.42 L 129.74 199.81 L 129.82 200.2 L 129.87 200.6 L 129.91 201 L 129.94 201.41 L 129.95 201.82 L 129.95 203.01 L 129.95 204.28 L 129.95 205.61 L 129.95 207.02 L 129.95 208.48 L 129.95 210 L 129.95 211.58 L 129.95 213.21 L 129.95 214.88 L 129.95 216.6 L 129.95 218.36 L 129.95 220.15 L 129.95 221.97 L 129.95 223.82 L 129.95 225.69 L 129.95 227.58 L 129.95 229.49 L 129.95 231.41 L 129.95 233.34 L 129.95 235.27 L 129.95 237.2 L 129.95 239.13 L 129.95 241.05 L 129.95 242.96 L 129.95 244.85 L 129.95 246.72 L 129.95 248.57 L 129.95 250.4 L 129.95 252.19 L 129.95 253.94 L 129.95 255.66 L 129.95 257.33 L 129.95 258.96 L 129.95 260.54 L 129.95 262.06 L 129.95 263.53 L 129.95 264.93 L 129.95 266.26 L 129.95 267.53 L 129.95 268.72 L 129.94 269.13 L 129.91 269.54 L 129.87 269.95 L 129.82 270.34 L 129.74 270.74 L 129.66 271.13 L 129.55 271.51 L 129.44 271.88 L 129.31 272.25 L 129.16 272.61 L 129 272.97 L 128.83 273.32 L 128.65 273.66 L 128.45 273.99 L 128.24 274.31 L 128.02 274.63 L 127.78 274.93 L 127.54 275.23 L 127.28 275.52 L 127.02 275.79 L 126.74 276.06 L 126.45 276.31 L 126.16 276.56 L 125.85 276.79 L 125.54 277.01 L 125.21 277.22 L 124.88 277.42 L 124.54 277.61 L 124.19 277.78 L 123.84 277.94 L 123.48 278.08 L 123.11 278.21 L 122.73 278.33 L 122.35 278.43 L 121.96 278.52 L 121.57 278.59 L 121.17 278.65 L 120.77 278.69 L 120.36 278.71 L 119.95 278.72 L 119.38 278.72 L 118.8 278.72 L 118.2 278.72 L 117.59 278.72 L 116.96 278.72 L 116.32 278.72 L 115.66 278.72 L 115 278.72 L 114.32 278.72 L 113.63 278.72 L 112.94 278.72 L 112.23 278.72 L 111.52 278.72 L 110.8 278.72 L 110.08 278.72 L 109.35 278.72 L 108.62 278.72 L 107.88 278.72 L 107.15 278.72 L 106.41 278.72 L 105.67 278.72 L 104.94 278.72 L 104.2 278.72 L 103.47 278.72 L 102.74 278.72 L 102.02 278.72 L 101.3 278.72 L 100.59 278.72 L 99.89 278.72 L 99.19 278.72 L 98.5 278.72 L 97.83 278.72 L 97.16 278.72 L 96.51 278.72 L 95.86 278.72 L 95.23 278.72 L 94.62 278.72 L 94.02 278.72 L 93.44 278.72 L 92.88 278.72 L 92.46 278.71 L 92.06 278.69 L 91.65 278.65 L 91.25 278.59 L 90.86 278.52 L 90.47 278.43 L 90.09 278.33 L 89.71 278.21 L 89.35 278.08 L 88.98 277.94 L 88.63 277.78 L 88.28 277.61 L 87.94 277.42 L 87.61 277.22 L 87.28 277.01 L 86.97 276.79 L 86.66 276.56 L 86.37 276.31 L 86.08 276.06 L 85.8 275.79 L 85.54 275.52 L 85.28 275.23 L 85.04 274.93 L 84.8 274.63 L 84.58 274.31 L 84.37 273.99 L 84.18 273.66 L 83.99 273.32 L 83.82 272.97 L 83.66 272.61 L 83.52 272.25 L 83.39 271.88 L 83.27 271.51 L 83.17 271.13 L 83.08 270.74 L 83.01 270.34 L 82.95 269.95 L 82.91 269.54 L 82.88 269.13 L 82.88 268.72 L 82.88 267.53 L 82.88 266.26 L 82.88 264.93 L 82.88 263.53 L 82.88 262.06 L 82.88 260.54 L 82.88 258.96 L 82.88 257.33 L 82.88 255.66 L 82.88 253.94 L 82.88 252.19 L 82.88 250.4 L 82.88 248.57 L 82.88 246.72 L 82.88 244.85 L 82.88 242.96 L 82.88 241.05 L 82.88 239.13 L 82.88 237.2 L 82.88 235.27 L 82.88 233.34 L 82.88 231.41 L 82.88 229.49 L 82.88 227.58 L 82.88 225.69 L 82.88 223.82 L 82.88 221.97 L 82.88 220.15 L 82.88 218.36 L 82.88 216.6 L 82.88 214.88 L 82.88 213.21 L 82.88 211.58 L 82.88 210 L 82.88 208.48 L 82.88 207.02 L 82.88 205.61 L 82.88 204.28 L 82.88 203.01 L 82.88 201.82 L 82.88 201.41 L 82.91 201 L 82.95 200.6 L 83.01 200.2 L 83.08 199.81 L 83.17 199.42 L 83.27 199.04 L 83.39 198.66 L 83.52 198.29 L 83.66 197.93 L 83.82 197.57 L 83.99 197.23 L 84.18 196.89 L 84.37 196.55 L 84.58 196.23 L 84.8 195.92 L 85.04 195.61 L 85.28 195.31 L 85.54 195.03 L 85.8 194.75 L 86.08 194.48 L 86.37 194.23 L 86.66 193.98 L 86.97 193.75 L 87.28 193.53 L 87.61 193.32 L 87.94 193.12 L 88.28 192.94 L 88.63 192.77 L 88.98 192.61 L 89.35 192.46 L 89.71 192.33 L 90.09 192.21 L 90.47 192.11 L 90.86 192.02 L 91.25 191.95 L 91.65 191.9 L 92.06 191.85 L 92.46 191.83 L 92.88 191.82 L 93.44 191.82 L 94.02 191.82 L 94.62 191.82 L 95.23 191.82 L 95.86 191.82 L 96.51 191.82 L 97.16 191.82 L 97.83 191.82 L 98.5 191.82 L 99.19 191.82 L 99.89 191.82 L 100.59 191.82 L 101.3 191.82 L 102.02 191.82 L 102.74 191.82 L 103.47 191.82 L 104.2 191.82 L 104.94 191.82 L 105.67 191.82 L 106.41 191.82 L 107.15 191.82 L 107.88 191.82 L 108.62 191.82 L 109.35 191.82 L 110.08 191.82 L 110.8 191.82 L 111.52 191.82 L 112.23 191.82 L 112.94 191.82 L 113.63 191.82 L 114.32 191.82 L 115 191.82 L 115.66 191.82 L 116.32 191.82 L 116.96 191.82 L 117.59 191.82 L 118.2 191.82 L 118.8 191.82 L 119.38 191.82 L 119.95 191.82 L 119.95 191.82 L 120.36 191.83 Z"
            fill="none"
            stroke="#1b1b17"
            stroke-width="1"/>
        <path
            id="path_54"
            d="M 196.54 191.82 C 202.07 191.82 206.54 196.3 206.54 201.82 C 206.54 217.2 206.54 253.34 206.54 268.72 C 206.54 274.24 202.07 278.72 196.54 278.72 C 189.13 278.72 176.89 278.72 169.47 278.72 C 163.95 278.72 159.47 274.24 159.47 268.72 C 159.47 253.34 159.47 217.2 159.47 201.82 C 159.47 196.3 163.95 191.82 169.47 191.82 C 176.89 191.82 189.13 191.82 196.54 191.82 Z"
            fill="#626161"/>
        <path
            id="path_55"
            d="M 196.54 191.82 C 202.07 191.82 206.54 196.3 206.54 201.82 C 206.54 217.2 206.54 253.34 206.54 268.72 C 206.54 274.24 202.07 278.72 196.54 278.72 C 189.13 278.72 176.89 278.72 169.47 278.72 C 163.95 278.72 159.47 274.24 159.47 268.72 C 159.47 253.34 159.47 217.2 159.47 201.82 C 159.47 196.3 163.95 191.82 169.47 191.82 C 176.89 191.82 189.13 191.82 196.54 191.82 Z"
            fill="none"
            stroke="#1b1b17"
            stroke-width="1"/>
        <path
            id="path_56"
            d="M 186.38 204.49 C 191.9 204.49 196.38 208.97 196.38 214.49 C 196.38 224.62 196.38 245.01 196.38 255.14 C 196.38 260.67 191.9 265.14 186.38 265.14 C 183.03 265.14 182.98 265.14 179.63 265.14 C 174.11 265.14 169.63 260.67 169.63 255.14 C 169.63 245.01 169.63 224.62 169.63 214.49 C 169.63 208.97 174.11 204.49 179.63 204.49 C 182.98 204.49 183.03 204.49 186.38 204.49 Z"
            fill="#4d4c4c"/>
        <path
            id="path_57"
            d="M 186.38 204.49 C 191.9 204.49 196.38 208.97 196.38 214.49 C 196.38 224.62 196.38 245.01 196.38 255.14 C 196.38 260.67 191.9 265.14 186.38 265.14 C 183.03 265.14 182.98 265.14 179.63 265.14 C 174.11 265.14 169.63 260.67 169.63 255.14 C 169.63 245.01 169.63 224.62 169.63 214.49 C 169.63 208.97 174.11 204.49 179.63 204.49 C 182.98 204.49 183.03 204.49 186.38 204.49 Z"
            fill="none"
            stroke="#1b1b17"
            stroke-width="1"/>
        <path
            id="path_58"
            d="M 108.68 204.49 C 114.2 204.49 118.68 208.97 118.68 214.49 C 118.68 224.62 118.68 245.01 118.68 255.14 C 118.68 260.67 114.2 265.14 108.68 265.14 C 105.33 265.14 105.28 265.14 101.93 265.14 C 96.4 265.14 91.93 260.67 91.93 255.14 C 91.93 245.01 91.93 224.62 91.93 214.49 C 91.93 208.97 96.4 204.49 101.93 204.49 C 105.28 204.49 105.33 204.49 108.68 204.49 Z"
            fill="#4d4c4c"/>
        <path
            id="path_59"
            d="M 108.68 204.49 C 114.2 204.49 118.68 208.97 118.68 214.49 C 118.68 224.62 118.68 245.01 118.68 255.14 C 118.68 260.67 114.2 265.14 108.68 265.14 C 105.33 265.14 105.28 265.14 101.93 265.14 C 96.4 265.14 91.93 260.67 91.93 255.14 C 91.93 245.01 91.93 224.62 91.93 214.49 C 91.93 208.97 96.4 204.49 101.93 204.49 C 105.28 204.49 105.33 204.49 108.68 204.49 Z"
            fill="none"
            stroke="#1b1b17"
            stroke-width="1"/>
        <path
            id="path_60"
            d="M 439 381.92 L 452.57 381.92 L 452.57 475.15 L 439 475.15 L 439 381.92 Z"
            fill="#8f8f8f"/>
        <path
            id="path_61"
            d="M 439 381.92 L 452.57 381.92 L 452.57 475.15 L 439 475.15 L 439 381.92 Z"
            fill="none"
            stroke="#1b1b17"
            stroke-width="1"/>
        <path
            id="path_62"
            d="M 405.95 478.3 L 459.95 478.3 L 459.95 492.78 L 405.95 492.78 L 405.95 478.3 Z"
            fill="#9335ed"/>
        <path
            id="path_63"
            d="M 186.36 381.92 L 199.94 381.92 L 199.94 475.15 L 186.36 475.15 L 186.36 381.92 Z"
            fill="#8f8f8f"/>
        <path
            id="path_64"
            d="M 186.36 381.92 L 199.94 381.92 L 199.94 475.15 L 186.36 475.15 L 186.36 381.92 Z"
            fill="none"
            stroke="#1b1b17"
            stroke-width="1"/>
        <path
            id="path_65"
            d="M 180.88 478.3 L 234.88 478.3 L 234.88 492.78 L 180.88 492.78 L 180.88 478.3 Z"
            fill="#9335ed"/>
    </g>
</svg>
